<?xml version="1.0" standalone="no"?>
<!DOCTYPE svg PUBLIC "-//W3C//DTD SVG 20010904//EN"
 "http://www.w3.org/TR/2001/REC-SVG-20010904/DTD/svg10.dtd">
<svg version="1.0" xmlns="http://www.w3.org/2000/svg"
 width="113.000000pt" height="113.000000pt" viewBox="0 0 113.000000 113.000000"
 preserveAspectRatio="xMidYMid meet">
<metadata>
Created by potrace 1.14, written by Peter Selinger 2001-2017
</metadata>
<g transform="translate(0.000000,113.000000) scale(0.100000,-0.100000)"
fill="#000000" stroke="none">
<path d="M380 990 c0 -5 7 -24 14 -42 8 -18 23 -57 33 -85 l19 -53 34 19 c19
10 35 23 35 29 0 6 -14 26 -31 44 -54 58 -47 60 24 8 60 -44 76 -51 109 -48
l38 3 -90 45 c-49 25 -92 47 -95 50 -6 6 -79 40 -85 40 -3 0 -5 -4 -5 -10z"/>
<path d="M403 771 c-48 -19 -76 -42 -103 -87 -17 -27 -31 -34 -93 -49 -109
-27 -150 -52 -181 -113 -50 -97 -5 -227 94 -268 24 -10 77 -15 175 -16 127 -2
144 0 186 21 75 36 125 86 161 159 29 59 33 76 33 147 -1 62 -5 88 -21 114
-23 39 -82 91 -110 96 -11 2 -19 4 -19 5 0 10 -90 4 -122 -9z"/>
<path d="M704 739 c94 -83 116 -207 58 -329 -21 -44 -34 -61 -99 -127 l-52
-53 197 3 c220 2 236 6 282 75 35 51 35 144 0 195 -43 63 -130 95 -197 73 -19
-6 -23 -2 -35 36 -17 60 -99 141 -156 155 l-43 11 45 -39z"/>
</g>
</svg>
